<svg width="271" height="255" viewBox="0 0 271 255" fill="none" xmlns="http://www.w3.org/2000/svg">
<rect x="28.7402" width="243.842" height="225" rx="50" transform="rotate(7.33305 28.7402 0)" fill="white"/>
<rect x="37.4303" y="11.3912" width="221.756" height="203.847" rx="45" transform="rotate(7.33305 37.4303 11.3912)" fill="#F89980" stroke="#4C4C55" stroke-width="10"/>
<mask id="path-3-inside-1_50_2390" fill="white">
<path d="M137.853 112.931C142.614 113.131 147.128 112.599 151.294 110.318C151.748 110.07 152.442 109.912 152.322 109.217C152.211 108.569 151.501 108.546 151.014 108.414C148.908 107.848 146.84 107.187 144.855 106.28C139.169 103.682 136.043 99.4303 136.25 93.0031C136.416 87.8361 138.407 83.3424 141.35 79.2185C143.155 76.6878 145.34 74.5182 148.129 73.0691C153.749 70.1486 159.916 71.7516 163.822 77.0598C166.471 80.6591 167.649 84.7642 168.065 89.1341C168.312 91.7297 168.338 94.3348 167.992 96.9235C167.869 97.8414 168.151 98.2431 169.064 98.2623C170.076 98.2836 171.087 98.3724 172.099 98.3687C174.746 98.3593 176.692 97.2839 177.879 94.7952C178.635 93.21 179.329 91.6189 179.863 89.9481C180.416 88.2191 180.797 88.0021 182.59 88.2279C184.098 88.4177 185.609 88.5908 187.111 88.818C188.577 89.0397 188.97 89.5759 188.793 91.0539C188.535 93.2175 188.305 95.3879 187.708 97.4941C187.388 98.6231 187.875 99.3924 188.803 99.9354C190.299 100.811 191.912 101.116 193.624 100.787C194.705 100.579 195.56 100.047 196.158 99.0817C197.463 96.9738 198.316 94.681 198.848 92.2836C199.372 89.921 199.328 89.9072 201.7 89.9304C203.585 89.9489 205.415 90.3163 207.243 90.7093C208.193 90.9134 208.592 91.4583 208.435 92.4848C208.123 94.5258 207.903 96.5809 207.634 98.6287C207.397 100.439 207.845 101.976 209.468 102.972C211.277 104.082 213.246 104.626 215.228 103.601C216.456 102.966 216.597 101.498 216.928 100.277C217.56 97.9375 217.264 95.5613 217.063 93.1987C216.771 89.7859 216.896 89.5578 220.284 88.796C222.324 88.3373 224.348 87.7081 226.494 87.967C227.542 88.0934 228.041 88.6055 228.204 89.6719C228.8 93.5692 229.036 97.4849 228.677 101.405C228.389 104.556 227.651 107.63 226.109 110.434C223.411 115.339 219.009 117.514 213.63 117.809C208.58 118.086 204.284 116.383 201.217 112.197C200.6 111.355 200.152 111.708 199.598 112.09C197.345 113.644 194.901 114.662 192.141 114.875C187.46 115.235 183.625 113.546 180.483 110.137C180.141 109.766 179.804 109.391 179.504 109.062C179.069 108.979 178.852 109.242 178.611 109.42C176.206 111.201 173.458 111.658 170.546 111.613C168.864 111.586 167.196 111.452 165.549 111.162C164.577 110.991 164.123 111.434 163.72 112.194C161.337 116.687 157.906 120.15 153.453 122.612C149.061 125.041 144.331 126.133 139.344 126.201C137.441 126.226 135.537 126.227 133.674 125.717C132.726 125.458 132.053 124.976 131.956 123.923C131.687 121.02 131.463 118.111 131.788 115.202C132.032 113.011 132.627 112.581 134.841 112.744C135.808 112.815 136.762 113.099 137.853 112.931ZM147.485 89.0848C146.935 90.6867 147.356 91.9116 148.891 92.9945C151.509 94.8418 154.608 95.3529 157.626 96.0763C158.366 96.2537 158.575 95.7797 158.641 95.1538C158.943 92.3084 158.277 89.7297 156.425 87.5315C153.685 84.2788 149.257 84.9845 147.485 89.0848Z"/>
<path d="M104.799 184.23C100.916 183.828 97.2663 182.88 93.6528 181.792C92.8026 181.536 92.4376 181.826 92.1388 182.553C91.6219 183.812 91.0653 185.054 90.5032 186.293C88.3573 191.022 84.2257 193.111 79.5647 194.476C73.8297 196.155 68.0625 196.017 62.2485 194.866C58.5242 194.129 54.9257 193.081 51.5598 191.308C44.6911 187.69 41.1836 182.004 41.1739 174.23C41.1656 167.674 43.27 161.703 46.4759 156.087C47.2868 154.667 48.5176 153.538 49.817 152.524C50.5574 151.946 51.3212 151.808 52.2017 152.271C54.1647 153.303 56.1351 154.325 58.1351 155.283C59.2024 155.794 59.2103 156.375 58.5957 157.268C56.8005 159.877 55.305 162.655 54.4359 165.71C52.5065 172.491 54.3779 177.19 60.6767 180.003C66.0344 182.395 71.634 183.12 77.4273 181.974C78.4673 181.768 79.4353 181.35 80.3152 180.753C81.197 180.155 81.57 179.362 81.4355 178.256C81.314 177.257 80.6031 177.057 79.8741 176.773C77.8832 175.997 75.8485 175.33 73.9273 174.381C72.2287 173.542 71.8925 173 72.2426 171.169C72.8215 168.143 73.5432 165.166 75.4981 162.648C76.1653 161.789 76.793 161.539 77.8812 161.972C84.1274 164.455 90.4487 166.746 96.9715 168.393C101.497 169.536 106.068 170.561 110.738 170.9C112.841 171.052 114.986 171.32 117.226 170.732C116.747 170.221 116.222 170.322 115.757 170.272C111.245 169.794 106.812 169.026 102.804 166.717C102.232 166.388 101.679 166.021 101.134 165.647C98.3642 163.753 96.8397 161.229 97.0736 157.767C97.3789 153.248 98.5928 149.059 101.257 145.327C107.845 136.101 120.773 138.674 125.416 146.122C127.869 150.059 128.88 154.428 129.235 158.976C129.635 164.102 129.126 169.123 127.498 174.039C125.995 178.577 122.924 181.43 118.514 183.009C115.011 184.263 111.391 184.558 107.709 184.386C106.777 184.343 105.845 184.292 104.799 184.23ZM107.876 158.097C108.592 158.891 109.437 159.488 110.453 159.844C112.599 160.596 114.8 161.004 117.081 160.965C118.295 160.944 118.637 160.637 118.468 159.429C118.241 157.802 117.8 156.224 116.952 154.799C115.416 152.217 112.696 151.299 109.899 152.392C107.518 153.323 106.547 155.867 107.876 158.097Z"/>
<path d="M61.8145 95.155C63.7139 98.341 66.7281 99.8824 69.9799 100.957C75.2793 102.709 80.6489 103 85.992 101.083C87.4848 100.548 88.0673 99.7102 87.9669 98.6707C87.8882 97.8556 87.5154 97.3234 86.7142 97.0262C84.3089 96.1342 81.918 95.2027 79.6342 94.0217C77.7021 93.0226 77.4349 92.0911 78.1612 90.0229C78.9852 87.6766 79.5959 85.2522 81.1265 83.2183C81.3839 82.8762 81.6073 82.5077 81.8763 82.1756C82.8729 80.9452 83.3283 80.8341 84.783 81.5116C90.8955 84.3582 97.2292 86.6054 103.783 88.1522C108.206 89.1961 112.669 90.1622 117.258 90.1959C117.484 90.1976 117.729 90.2895 117.916 90.0617C118.038 89.6867 117.767 89.556 117.501 89.5152C115.112 89.1498 112.841 88.3502 110.566 87.5909C108.008 86.7372 105.886 85.1881 104.003 83.2605C101.658 80.8598 101.322 77.9255 101.903 74.8911C102.957 69.3814 105.723 64.8154 110.138 61.3138C112.77 59.2261 115.827 58.1033 119.162 58.4323C124.575 58.9664 129.39 62.4403 131.204 67.8039C132.478 71.5714 132.672 75.4811 132.547 79.4309C132.418 83.4625 131.866 87.4137 130.533 91.2261C127.934 98.6576 121.363 103.294 113.501 103.323C109.269 103.339 105.145 102.655 101.081 101.526C100.596 101.392 100.085 101.35 99.5834 101.28C98.9762 101.196 98.605 101.466 98.5039 102.07C97.3398 109.016 92.7651 112.755 86.4502 114.8C81.7954 116.307 77.009 116.621 72.1552 116.148C67.4288 115.687 62.8341 114.714 58.6817 112.31C51.2251 107.993 47.8153 101.246 47.6666 92.8553C47.5245 84.8309 51.1205 78.2415 56.3193 72.3985C56.8872 71.7602 57.5697 71.7788 58.2413 72.0682C60.6006 73.085 62.9271 74.1737 65.1623 75.4468C65.9124 75.874 66.0931 76.4372 65.6053 77.1897C64.5042 78.8881 63.3392 80.5509 62.3353 82.3054C59.9645 86.449 59.4572 90.7145 61.8145 95.155ZM122.182 76.6363C122.051 76.1074 121.945 75.5709 121.785 75.0509C121.132 72.9304 119.683 71.4866 117.553 71.1374C115.576 70.8132 113.81 71.6827 112.47 73.2135C111.171 74.6966 111.21 75.8837 112.512 77.3462C113.363 78.3017 114.387 79.032 115.62 79.325C117.511 79.7741 119.421 80.145 121.361 80.3653C122.417 80.4853 122.71 80.0285 122.596 79.1141C122.5 78.3433 122.357 77.5784 122.182 76.6363Z"/>
<path d="M137.97 173.342C138.472 169.439 139.035 165.659 139.424 161.862C139.772 158.452 140.022 155.03 140.6 151.651C141.586 145.887 142.23 140.078 143.002 134.286C143.24 132.503 143.674 132.07 145.452 131.98C148.088 131.846 150.726 131.747 153.364 131.663C153.864 131.647 154.373 131.747 154.871 131.833C155.503 131.942 155.822 132.365 155.795 132.989C155.743 134.231 155.721 135.48 155.564 136.71C154.146 147.842 152.689 158.969 151.27 170.1C150.782 173.935 152.154 175.796 155.988 176.506C159.027 177.069 162.035 176.793 164.983 175.901C168.124 174.952 170.105 172.589 171.904 170.059C174.24 166.775 177.135 164.087 180.462 161.858C182.922 160.21 185.571 159.001 188.615 159.041C193.193 159.1 196.499 161.387 198.89 165.124C201.342 168.958 202.026 173.279 202.167 177.727C202.286 181.461 201.771 185.081 200.304 188.548C198.088 193.783 192.777 197.135 187.216 196.747C181.089 196.319 176.095 193.545 171.839 189.267C171.403 188.828 171.003 188.353 170.541 187.845C169.652 188.402 168.823 188.967 167.953 189.458C164.795 191.24 161.343 191.698 157.799 191.504C153.984 191.295 150.216 190.731 146.607 189.394C144.773 188.714 143.042 187.825 141.5 186.613C138.632 184.36 137.545 181.306 137.658 177.763C137.704 176.326 137.688 174.881 137.97 173.342ZM184.27 173.262C182.536 174.137 181.112 175.365 179.997 176.963C179.178 178.136 179.167 178.294 180.299 179.102C182.301 180.532 184.482 181.646 186.77 182.524C187.894 182.956 189.123 183.057 190.333 183.008C191.649 182.956 192.141 182.406 192.098 181.094C192.014 178.517 191.049 176.295 189.097 174.625C187.796 173.511 186.299 172.644 184.27 173.262Z"/>
</mask>
<path d="M137.853 112.931C142.614 113.131 147.128 112.599 151.294 110.318C151.748 110.07 152.442 109.912 152.322 109.217C152.211 108.569 151.501 108.546 151.014 108.414C148.908 107.848 146.84 107.187 144.855 106.28C139.169 103.682 136.043 99.4303 136.25 93.0031C136.416 87.8361 138.407 83.3424 141.35 79.2185C143.155 76.6878 145.34 74.5182 148.129 73.0691C153.749 70.1486 159.916 71.7516 163.822 77.0598C166.471 80.6591 167.649 84.7642 168.065 89.1341C168.312 91.7297 168.338 94.3348 167.992 96.9235C167.869 97.8414 168.151 98.2431 169.064 98.2623C170.076 98.2836 171.087 98.3724 172.099 98.3687C174.746 98.3593 176.692 97.2839 177.879 94.7952C178.635 93.21 179.329 91.6189 179.863 89.9481C180.416 88.2191 180.797 88.0021 182.59 88.2279C184.098 88.4177 185.609 88.5908 187.111 88.818C188.577 89.0397 188.97 89.5759 188.793 91.0539C188.535 93.2175 188.305 95.3879 187.708 97.4941C187.388 98.6231 187.875 99.3924 188.803 99.9354C190.299 100.811 191.912 101.116 193.624 100.787C194.705 100.579 195.56 100.047 196.158 99.0817C197.463 96.9738 198.316 94.681 198.848 92.2836C199.372 89.921 199.328 89.9072 201.7 89.9304C203.585 89.9489 205.415 90.3163 207.243 90.7093C208.193 90.9134 208.592 91.4583 208.435 92.4848C208.123 94.5258 207.903 96.5809 207.634 98.6287C207.397 100.439 207.845 101.976 209.468 102.972C211.277 104.082 213.246 104.626 215.228 103.601C216.456 102.966 216.597 101.498 216.928 100.277C217.56 97.9375 217.264 95.5613 217.063 93.1987C216.771 89.7859 216.896 89.5578 220.284 88.796C222.324 88.3373 224.348 87.7081 226.494 87.967C227.542 88.0934 228.041 88.6055 228.204 89.6719C228.8 93.5692 229.036 97.4849 228.677 101.405C228.389 104.556 227.651 107.63 226.109 110.434C223.411 115.339 219.009 117.514 213.63 117.809C208.58 118.086 204.284 116.383 201.217 112.197C200.6 111.355 200.152 111.708 199.598 112.09C197.345 113.644 194.901 114.662 192.141 114.875C187.46 115.235 183.625 113.546 180.483 110.137C180.141 109.766 179.804 109.391 179.504 109.062C179.069 108.979 178.852 109.242 178.611 109.42C176.206 111.201 173.458 111.658 170.546 111.613C168.864 111.586 167.196 111.452 165.549 111.162C164.577 110.991 164.123 111.434 163.72 112.194C161.337 116.687 157.906 120.15 153.453 122.612C149.061 125.041 144.331 126.133 139.344 126.201C137.441 126.226 135.537 126.227 133.674 125.717C132.726 125.458 132.053 124.976 131.956 123.923C131.687 121.02 131.463 118.111 131.788 115.202C132.032 113.011 132.627 112.581 134.841 112.744C135.808 112.815 136.762 113.099 137.853 112.931ZM147.485 89.0848C146.935 90.6867 147.356 91.9116 148.891 92.9945C151.509 94.8418 154.608 95.3529 157.626 96.0763C158.366 96.2537 158.575 95.7797 158.641 95.1538C158.943 92.3084 158.277 89.7297 156.425 87.5315C153.685 84.2788 149.257 84.9845 147.485 89.0848Z" fill="#E2ABFB"/>
<path d="M104.799 184.23C100.916 183.828 97.2663 182.88 93.6528 181.792C92.8026 181.536 92.4376 181.826 92.1388 182.553C91.6219 183.812 91.0653 185.054 90.5032 186.293C88.3573 191.022 84.2257 193.111 79.5647 194.476C73.8297 196.155 68.0625 196.017 62.2485 194.866C58.5242 194.129 54.9257 193.081 51.5598 191.308C44.6911 187.69 41.1836 182.004 41.1739 174.23C41.1656 167.674 43.27 161.703 46.4759 156.087C47.2868 154.667 48.5176 153.538 49.817 152.524C50.5574 151.946 51.3212 151.808 52.2017 152.271C54.1647 153.303 56.1351 154.325 58.1351 155.283C59.2024 155.794 59.2103 156.375 58.5957 157.268C56.8005 159.877 55.305 162.655 54.4359 165.71C52.5065 172.491 54.3779 177.19 60.6767 180.003C66.0344 182.395 71.634 183.12 77.4273 181.974C78.4673 181.768 79.4353 181.35 80.3152 180.753C81.197 180.155 81.57 179.362 81.4355 178.256C81.314 177.257 80.6031 177.057 79.8741 176.773C77.8832 175.997 75.8485 175.33 73.9273 174.381C72.2287 173.542 71.8925 173 72.2426 171.169C72.8215 168.143 73.5432 165.166 75.4981 162.648C76.1653 161.789 76.793 161.539 77.8812 161.972C84.1274 164.455 90.4487 166.746 96.9715 168.393C101.497 169.536 106.068 170.561 110.738 170.9C112.841 171.052 114.986 171.32 117.226 170.732C116.747 170.221 116.222 170.322 115.757 170.272C111.245 169.794 106.812 169.026 102.804 166.717C102.232 166.388 101.679 166.021 101.134 165.647C98.3642 163.753 96.8397 161.229 97.0736 157.767C97.3789 153.248 98.5928 149.059 101.257 145.327C107.845 136.101 120.773 138.674 125.416 146.122C127.869 150.059 128.88 154.428 129.235 158.976C129.635 164.102 129.126 169.123 127.498 174.039C125.995 178.577 122.924 181.43 118.514 183.009C115.011 184.263 111.391 184.558 107.709 184.386C106.777 184.343 105.845 184.292 104.799 184.23ZM107.876 158.097C108.592 158.891 109.437 159.488 110.453 159.844C112.599 160.596 114.8 161.004 117.081 160.965C118.295 160.944 118.637 160.637 118.468 159.429C118.241 157.802 117.8 156.224 116.952 154.799C115.416 152.217 112.696 151.299 109.899 152.392C107.518 153.323 106.547 155.867 107.876 158.097Z" fill="#E2ABFB"/>
<path d="M61.8145 95.155C63.7139 98.341 66.7281 99.8824 69.9799 100.957C75.2793 102.709 80.6489 103 85.992 101.083C87.4848 100.548 88.0673 99.7102 87.9669 98.6707C87.8882 97.8556 87.5154 97.3234 86.7142 97.0262C84.3089 96.1342 81.918 95.2027 79.6342 94.0217C77.7021 93.0226 77.4349 92.0911 78.1612 90.0229C78.9852 87.6766 79.5959 85.2522 81.1265 83.2183C81.3839 82.8762 81.6073 82.5077 81.8763 82.1756C82.8729 80.9452 83.3283 80.8341 84.783 81.5116C90.8955 84.3582 97.2292 86.6054 103.783 88.1522C108.206 89.1961 112.669 90.1622 117.258 90.1959C117.484 90.1976 117.729 90.2895 117.916 90.0617C118.038 89.6867 117.767 89.556 117.501 89.5152C115.112 89.1498 112.841 88.3502 110.566 87.5909C108.008 86.7372 105.886 85.1881 104.003 83.2605C101.658 80.8598 101.322 77.9255 101.903 74.8911C102.957 69.3814 105.723 64.8154 110.138 61.3138C112.77 59.2261 115.827 58.1033 119.162 58.4323C124.575 58.9664 129.39 62.4403 131.204 67.8039C132.478 71.5714 132.672 75.4811 132.547 79.4309C132.418 83.4625 131.866 87.4137 130.533 91.2261C127.934 98.6576 121.363 103.294 113.501 103.323C109.269 103.339 105.145 102.655 101.081 101.526C100.596 101.392 100.085 101.35 99.5834 101.28C98.9762 101.196 98.605 101.466 98.5039 102.07C97.3398 109.016 92.7651 112.755 86.4502 114.8C81.7954 116.307 77.009 116.621 72.1552 116.148C67.4288 115.687 62.8341 114.714 58.6817 112.31C51.2251 107.993 47.8153 101.246 47.6666 92.8553C47.5245 84.8309 51.1205 78.2415 56.3193 72.3985C56.8872 71.7602 57.5697 71.7788 58.2413 72.0682C60.6006 73.085 62.9271 74.1737 65.1623 75.4468C65.9124 75.874 66.0931 76.4372 65.6053 77.1897C64.5042 78.8881 63.3392 80.5509 62.3353 82.3054C59.9645 86.449 59.4572 90.7145 61.8145 95.155ZM122.182 76.6363C122.051 76.1074 121.945 75.5709 121.785 75.0509C121.132 72.9304 119.683 71.4866 117.553 71.1374C115.576 70.8132 113.81 71.6827 112.47 73.2135C111.171 74.6966 111.21 75.8837 112.512 77.3462C113.363 78.3017 114.387 79.032 115.62 79.325C117.511 79.7741 119.421 80.145 121.361 80.3653C122.417 80.4853 122.71 80.0285 122.596 79.1141C122.5 78.3433 122.357 77.5784 122.182 76.6363Z" fill="#E2ABFB"/>
<path d="M137.97 173.342C138.472 169.439 139.035 165.659 139.424 161.862C139.772 158.452 140.022 155.03 140.6 151.651C141.586 145.887 142.23 140.078 143.002 134.286C143.24 132.503 143.674 132.07 145.452 131.98C148.088 131.846 150.726 131.747 153.364 131.663C153.864 131.647 154.373 131.747 154.871 131.833C155.503 131.942 155.822 132.365 155.795 132.989C155.743 134.231 155.721 135.48 155.564 136.71C154.146 147.842 152.689 158.969 151.27 170.1C150.782 173.935 152.154 175.796 155.988 176.506C159.027 177.069 162.035 176.793 164.983 175.901C168.124 174.952 170.105 172.589 171.904 170.059C174.24 166.775 177.135 164.087 180.462 161.858C182.922 160.21 185.571 159.001 188.615 159.041C193.193 159.1 196.499 161.387 198.89 165.124C201.342 168.958 202.026 173.279 202.167 177.727C202.286 181.461 201.771 185.081 200.304 188.548C198.088 193.783 192.777 197.135 187.216 196.747C181.089 196.319 176.095 193.545 171.839 189.267C171.403 188.828 171.003 188.353 170.541 187.845C169.652 188.402 168.823 188.967 167.953 189.458C164.795 191.24 161.343 191.698 157.799 191.504C153.984 191.295 150.216 190.731 146.607 189.394C144.773 188.714 143.042 187.825 141.5 186.613C138.632 184.36 137.545 181.306 137.658 177.763C137.704 176.326 137.688 174.881 137.97 173.342ZM184.27 173.262C182.536 174.137 181.112 175.365 179.997 176.963C179.178 178.136 179.167 178.294 180.299 179.102C182.301 180.532 184.482 181.646 186.77 182.524C187.894 182.956 189.123 183.057 190.333 183.008C191.649 182.956 192.141 182.406 192.098 181.094C192.014 178.517 191.049 176.295 189.097 174.625C187.796 173.511 186.299 172.644 184.27 173.262Z" fill="#E2ABFB"/>
<path d="M137.853 112.931C142.614 113.131 147.128 112.599 151.294 110.318C151.748 110.07 152.442 109.912 152.322 109.217C152.211 108.569 151.501 108.546 151.014 108.414C148.908 107.848 146.84 107.187 144.855 106.28C139.169 103.682 136.043 99.4303 136.25 93.0031C136.416 87.8361 138.407 83.3424 141.35 79.2185C143.155 76.6878 145.34 74.5182 148.129 73.0691C153.749 70.1486 159.916 71.7516 163.822 77.0598C166.471 80.6591 167.649 84.7642 168.065 89.1341C168.312 91.7297 168.338 94.3348 167.992 96.9235C167.869 97.8414 168.151 98.2431 169.064 98.2623C170.076 98.2836 171.087 98.3724 172.099 98.3687C174.746 98.3593 176.692 97.2839 177.879 94.7952C178.635 93.21 179.329 91.6189 179.863 89.9481C180.416 88.2191 180.797 88.0021 182.59 88.2279C184.098 88.4177 185.609 88.5908 187.111 88.818C188.577 89.0397 188.97 89.5759 188.793 91.0539C188.535 93.2175 188.305 95.3879 187.708 97.4941C187.388 98.6231 187.875 99.3924 188.803 99.9354C190.299 100.811 191.912 101.116 193.624 100.787C194.705 100.579 195.56 100.047 196.158 99.0817C197.463 96.9738 198.316 94.681 198.848 92.2836C199.372 89.921 199.328 89.9072 201.7 89.9304C203.585 89.9489 205.415 90.3163 207.243 90.7093C208.193 90.9134 208.592 91.4583 208.435 92.4848C208.123 94.5258 207.903 96.5809 207.634 98.6287C207.397 100.439 207.845 101.976 209.468 102.972C211.277 104.082 213.246 104.626 215.228 103.601C216.456 102.966 216.597 101.498 216.928 100.277C217.56 97.9375 217.264 95.5613 217.063 93.1987C216.771 89.7859 216.896 89.5578 220.284 88.796C222.324 88.3373 224.348 87.7081 226.494 87.967C227.542 88.0934 228.041 88.6055 228.204 89.6719C228.8 93.5692 229.036 97.4849 228.677 101.405C228.389 104.556 227.651 107.63 226.109 110.434C223.411 115.339 219.009 117.514 213.63 117.809C208.58 118.086 204.284 116.383 201.217 112.197C200.6 111.355 200.152 111.708 199.598 112.09C197.345 113.644 194.901 114.662 192.141 114.875C187.46 115.235 183.625 113.546 180.483 110.137C180.141 109.766 179.804 109.391 179.504 109.062C179.069 108.979 178.852 109.242 178.611 109.42C176.206 111.201 173.458 111.658 170.546 111.613C168.864 111.586 167.196 111.452 165.549 111.162C164.577 110.991 164.123 111.434 163.72 112.194C161.337 116.687 157.906 120.15 153.453 122.612C149.061 125.041 144.331 126.133 139.344 126.201C137.441 126.226 135.537 126.227 133.674 125.717C132.726 125.458 132.053 124.976 131.956 123.923C131.687 121.02 131.463 118.111 131.788 115.202C132.032 113.011 132.627 112.581 134.841 112.744C135.808 112.815 136.762 113.099 137.853 112.931ZM147.485 89.0848C146.935 90.6867 147.356 91.9116 148.891 92.9945C151.509 94.8418 154.608 95.3529 157.626 96.0763C158.366 96.2537 158.575 95.7797 158.641 95.1538C158.943 92.3084 158.277 89.7297 156.425 87.5315C153.685 84.2788 149.257 84.9845 147.485 89.0848Z" stroke="#4C4C55" stroke-width="8" mask="url(#path-3-inside-1_50_2390)"/>
<path d="M104.799 184.23C100.916 183.828 97.2663 182.88 93.6528 181.792C92.8026 181.536 92.4376 181.826 92.1388 182.553C91.6219 183.812 91.0653 185.054 90.5032 186.293C88.3573 191.022 84.2257 193.111 79.5647 194.476C73.8297 196.155 68.0625 196.017 62.2485 194.866C58.5242 194.129 54.9257 193.081 51.5598 191.308C44.6911 187.69 41.1836 182.004 41.1739 174.23C41.1656 167.674 43.27 161.703 46.4759 156.087C47.2868 154.667 48.5176 153.538 49.817 152.524C50.5574 151.946 51.3212 151.808 52.2017 152.271C54.1647 153.303 56.1351 154.325 58.1351 155.283C59.2024 155.794 59.2103 156.375 58.5957 157.268C56.8005 159.877 55.305 162.655 54.4359 165.71C52.5065 172.491 54.3779 177.19 60.6767 180.003C66.0344 182.395 71.634 183.12 77.4273 181.974C78.4673 181.768 79.4353 181.35 80.3152 180.753C81.197 180.155 81.57 179.362 81.4355 178.256C81.314 177.257 80.6031 177.057 79.8741 176.773C77.8832 175.997 75.8485 175.33 73.9273 174.381C72.2287 173.542 71.8925 173 72.2426 171.169C72.8215 168.143 73.5432 165.166 75.4981 162.648C76.1653 161.789 76.793 161.539 77.8812 161.972C84.1274 164.455 90.4487 166.746 96.9715 168.393C101.497 169.536 106.068 170.561 110.738 170.9C112.841 171.052 114.986 171.32 117.226 170.732C116.747 170.221 116.222 170.322 115.757 170.272C111.245 169.794 106.812 169.026 102.804 166.717C102.232 166.388 101.679 166.021 101.134 165.647C98.3642 163.753 96.8397 161.229 97.0736 157.767C97.3789 153.248 98.5928 149.059 101.257 145.327C107.845 136.101 120.773 138.674 125.416 146.122C127.869 150.059 128.88 154.428 129.235 158.976C129.635 164.102 129.126 169.123 127.498 174.039C125.995 178.577 122.924 181.43 118.514 183.009C115.011 184.263 111.391 184.558 107.709 184.386C106.777 184.343 105.845 184.292 104.799 184.23ZM107.876 158.097C108.592 158.891 109.437 159.488 110.453 159.844C112.599 160.596 114.8 161.004 117.081 160.965C118.295 160.944 118.637 160.637 118.468 159.429C118.241 157.802 117.8 156.224 116.952 154.799C115.416 152.217 112.696 151.299 109.899 152.392C107.518 153.323 106.547 155.867 107.876 158.097Z" stroke="#4C4C55" stroke-width="8" mask="url(#path-3-inside-1_50_2390)"/>
<path d="M61.8145 95.155C63.7139 98.341 66.7281 99.8824 69.9799 100.957C75.2793 102.709 80.6489 103 85.992 101.083C87.4848 100.548 88.0673 99.7102 87.9669 98.6707C87.8882 97.8556 87.5154 97.3234 86.7142 97.0262C84.3089 96.1342 81.918 95.2027 79.6342 94.0217C77.7021 93.0226 77.4349 92.0911 78.1612 90.0229C78.9852 87.6766 79.5959 85.2522 81.1265 83.2183C81.3839 82.8762 81.6073 82.5077 81.8763 82.1756C82.8729 80.9452 83.3283 80.8341 84.783 81.5116C90.8955 84.3582 97.2292 86.6054 103.783 88.1522C108.206 89.1961 112.669 90.1622 117.258 90.1959C117.484 90.1976 117.729 90.2895 117.916 90.0617C118.038 89.6867 117.767 89.556 117.501 89.5152C115.112 89.1498 112.841 88.3502 110.566 87.5909C108.008 86.7372 105.886 85.1881 104.003 83.2605C101.658 80.8598 101.322 77.9255 101.903 74.8911C102.957 69.3814 105.723 64.8154 110.138 61.3138C112.77 59.2261 115.827 58.1033 119.162 58.4323C124.575 58.9664 129.39 62.4403 131.204 67.8039C132.478 71.5714 132.672 75.4811 132.547 79.4309C132.418 83.4625 131.866 87.4137 130.533 91.2261C127.934 98.6576 121.363 103.294 113.501 103.323C109.269 103.339 105.145 102.655 101.081 101.526C100.596 101.392 100.085 101.35 99.5834 101.28C98.9762 101.196 98.605 101.466 98.5039 102.07C97.3398 109.016 92.7651 112.755 86.4502 114.8C81.7954 116.307 77.009 116.621 72.1552 116.148C67.4288 115.687 62.8341 114.714 58.6817 112.31C51.2251 107.993 47.8153 101.246 47.6666 92.8553C47.5245 84.8309 51.1205 78.2415 56.3193 72.3985C56.8872 71.7602 57.5697 71.7788 58.2413 72.0682C60.6006 73.085 62.9271 74.1737 65.1623 75.4468C65.9124 75.874 66.0931 76.4372 65.6053 77.1897C64.5042 78.8881 63.3392 80.5509 62.3353 82.3054C59.9645 86.449 59.4572 90.7145 61.8145 95.155ZM122.182 76.6363C122.051 76.1074 121.945 75.5709 121.785 75.0509C121.132 72.9304 119.683 71.4866 117.553 71.1374C115.576 70.8132 113.81 71.6827 112.47 73.2135C111.171 74.6966 111.21 75.8837 112.512 77.3462C113.363 78.3017 114.387 79.032 115.62 79.325C117.511 79.7741 119.421 80.145 121.361 80.3653C122.417 80.4853 122.71 80.0285 122.596 79.1141C122.5 78.3433 122.357 77.5784 122.182 76.6363Z" stroke="#4C4C55" stroke-width="8" mask="url(#path-3-inside-1_50_2390)"/>
<path d="M137.97 173.342C138.472 169.439 139.035 165.659 139.424 161.862C139.772 158.452 140.022 155.03 140.6 151.651C141.586 145.887 142.23 140.078 143.002 134.286C143.24 132.503 143.674 132.07 145.452 131.98C148.088 131.846 150.726 131.747 153.364 131.663C153.864 131.647 154.373 131.747 154.871 131.833C155.503 131.942 155.822 132.365 155.795 132.989C155.743 134.231 155.721 135.48 155.564 136.71C154.146 147.842 152.689 158.969 151.27 170.1C150.782 173.935 152.154 175.796 155.988 176.506C159.027 177.069 162.035 176.793 164.983 175.901C168.124 174.952 170.105 172.589 171.904 170.059C174.24 166.775 177.135 164.087 180.462 161.858C182.922 160.21 185.571 159.001 188.615 159.041C193.193 159.1 196.499 161.387 198.89 165.124C201.342 168.958 202.026 173.279 202.167 177.727C202.286 181.461 201.771 185.081 200.304 188.548C198.088 193.783 192.777 197.135 187.216 196.747C181.089 196.319 176.095 193.545 171.839 189.267C171.403 188.828 171.003 188.353 170.541 187.845C169.652 188.402 168.823 188.967 167.953 189.458C164.795 191.24 161.343 191.698 157.799 191.504C153.984 191.295 150.216 190.731 146.607 189.394C144.773 188.714 143.042 187.825 141.5 186.613C138.632 184.36 137.545 181.306 137.658 177.763C137.704 176.326 137.688 174.881 137.97 173.342ZM184.27 173.262C182.536 174.137 181.112 175.365 179.997 176.963C179.178 178.136 179.167 178.294 180.299 179.102C182.301 180.532 184.482 181.646 186.77 182.524C187.894 182.956 189.123 183.057 190.333 183.008C191.649 182.956 192.141 182.406 192.098 181.094C192.014 178.517 191.049 176.295 189.097 174.625C187.796 173.511 186.299 172.644 184.27 173.262Z" stroke="#4C4C55" stroke-width="8" mask="url(#path-3-inside-1_50_2390)"/>
<path d="M56.7129 42.4108C57.2192 41.8121 58.3785 41.5643 59.5752 42.3083L59.8145 42.4704C60.9051 43.27 61.9795 44.0876 63.0605 44.9206L66.3506 47.4626L66.3604 47.4704C68.6593 49.1906 70.918 50.8607 73.1553 52.5397L75.3857 54.2233C76.0008 54.6908 76.2941 55.169 76.3916 55.5749C76.4735 55.9162 76.437 56.2847 76.2305 56.6735L76.1309 56.8405C75.6787 57.5375 74.7014 57.8908 73.6133 57.4089L73.3945 57.3015C72.1692 56.6388 70.9706 55.912 69.8125 55.1325L69.3184 54.7956C67.4999 53.5355 65.6907 52.2622 63.8838 50.9831L58.4648 47.1345C58.0786 46.8601 57.7106 46.5784 57.3711 46.2819L57.042 45.9802C55.9659 44.9444 55.853 43.6182 56.5605 42.6081L56.7129 42.4108ZM75.8555 25.9089C76.2315 25.7886 76.4813 25.818 76.6348 25.8806C76.7614 25.9321 76.9067 26.0394 77.0352 26.2731L77.0889 26.3806C80.0822 32.9725 83.5193 39.075 85.875 45.7536L86.0986 46.402C86.3976 47.2812 86.3771 47.9207 85.9492 48.5231L85.8584 48.6432C85.3294 49.2995 84.7136 49.527 84.2129 49.4958C83.7544 49.4671 83.2492 49.2132 82.8652 48.5915L82.79 48.4616C82.2361 47.448 81.7172 46.4229 81.1992 45.3766L79.6143 42.1647C78.2926 39.335 76.9858 36.5591 75.7012 33.7868L74.4199 31.0056C74.1134 30.3349 73.8513 29.6319 73.625 28.9138L73.4102 28.1911C73.2709 27.6922 73.3143 27.3986 73.3984 27.2116C73.4844 27.0206 73.6826 26.7844 74.1562 26.5407L74.1572 26.5417C74.5267 26.3517 74.9282 26.2083 75.3828 26.0602L75.8555 25.9089ZM99.2725 29.0124C100.009 29.0043 100.549 29.3422 100.834 30.0153L100.888 30.154C101.26 31.2186 101.195 32.3403 101.002 33.5993L100.912 34.1481C100.759 35.0393 100.607 35.937 100.463 36.8893L100.322 37.862L100.321 37.8718C99.9817 40.5327 99.6692 43.0664 99.3252 45.5983C99.3025 45.7651 99.2596 45.9247 99.2012 46.1071L98.9814 46.7556C98.7421 47.4746 98.4013 47.883 98.0518 48.0954C97.7526 48.2771 97.3544 48.3724 96.8203 48.2995L96.583 48.2575C95.8641 48.1039 95.1783 47.2711 95.2246 46.1677L95.2441 45.9431C95.8032 41.6215 95.929 37.5344 96.7832 33.4557L96.9639 32.6393C97.1534 31.831 97.2925 31.1176 97.4951 30.4177L97.5859 30.1179C97.7547 29.5906 98.4051 29.0881 99.127 29.0202L99.2725 29.0124Z" fill="#A8E38C" stroke="#4C4C55" stroke-width="2"/>
<path d="M70.4346 202.869C72.0127 202.839 73.2922 203.38 73.9531 204.216L74.0771 204.386C75.9082 207.16 74.5912 210.864 71.2783 211.603L70.9512 211.666C69.9052 211.831 69.041 211.716 68.3223 211.405C67.6923 211.132 67.1036 210.678 66.5742 210L66.3516 209.696C65.3045 208.178 65.3709 206.552 66.3633 204.577C67.2836 203.526 68.8275 202.899 70.4346 202.869ZM55.0723 201.154C56.6433 200.859 58.2534 201.194 59.3086 201.975L59.5127 202.137C60.1578 202.691 60.5262 203.297 60.6895 203.932C60.8338 204.494 60.8368 205.156 60.6377 205.925L60.54 206.26C59.7342 208.757 57.7972 210.083 55.3975 209.872L55.1631 209.846C52.5777 209.516 50.9129 207.185 51.4189 204.626L51.4746 204.378C51.5018 204.27 51.5271 204.161 51.5508 204.06C51.57 203.979 51.5908 203.894 51.6143 203.8C52.1425 202.38 53.4447 201.46 55.0723 201.154ZM111.27 122.601C115.114 120.73 119.591 123.509 119.564 127.733L119.548 128.146C119.308 131.346 116.502 133.676 113.723 133.358L113.454 133.319C109.937 132.697 108.055 129.965 108.382 126.803L108.42 126.496C108.684 124.705 109.569 123.477 111.27 122.601ZM78.9746 123.784C80.553 123.754 81.8323 124.296 82.4932 125.132L82.6172 125.302C84.4482 128.076 83.1312 131.78 79.8184 132.519L79.4912 132.581C78.4453 132.746 77.5811 132.632 76.8623 132.321C76.2323 132.048 75.6437 131.594 75.1143 130.916L74.8916 130.611C73.8451 129.094 73.9111 127.469 74.9023 125.495C75.8224 124.443 77.3666 123.814 78.9746 123.784ZM63.6104 122.069C65.1815 121.774 66.7915 122.11 67.8467 122.891L68.0508 123.053C68.6959 123.607 69.0644 124.213 69.2275 124.848C69.3718 125.41 69.3748 126.071 69.1758 126.84L69.0781 127.175C68.2723 129.673 66.3353 130.999 63.9355 130.788L63.7012 130.762C61.1157 130.432 59.4508 128.101 59.957 125.541L60.0127 125.293C60.0399 125.185 60.0652 125.076 60.0889 124.975C60.1081 124.894 60.1279 124.809 60.1514 124.715C60.6796 123.295 61.9828 122.375 63.6104 122.069ZM206.317 75.1296C207.831 73.0277 211.421 72.8094 213.696 75.2565C214.722 76.8879 214.85 78.5655 214.389 79.8835C213.952 81.1306 212.962 82.1516 211.47 82.5856L211.164 82.6638C209.245 83.0997 207.208 82.3046 206.337 80.9851L206.256 80.8561C205.155 78.9826 205.131 77.0365 206.108 75.444L206.317 75.1296ZM192.07 73.3073C193.166 71.9207 195.343 71.2234 197.085 71.739L197.253 71.7927C198.175 72.1131 198.779 72.602 199.193 73.1989C199.568 73.7383 199.832 74.4324 199.975 75.3024L200.028 75.6862C200.205 77.1958 199.932 78.3495 199.39 79.1686C198.89 79.9236 198.069 80.5359 196.816 80.862L196.561 80.9226C194.779 81.3134 193.156 80.7686 191.626 79.3171C190.515 77.4194 190.592 75.43 191.806 73.6657L192.07 73.3073ZM199.908 59.7116C201.561 57.2982 204.157 56.5623 206.757 57.694L207.011 57.8102C209.134 58.8342 210.325 61.4229 209.715 63.8845L209.65 64.1227C209.365 65.0848 208.524 66.1015 207.297 66.8542C206.155 67.5545 204.848 67.9199 203.698 67.8522L203.471 67.8327C202.498 67.7242 201.467 67.1612 200.63 66.2448C199.848 65.3893 199.321 64.3165 199.177 63.2497L199.152 63.0358C199.056 61.9257 199.313 60.8814 199.908 59.7116ZM119.955 40.7272C122.781 40.0316 125.843 41.6101 126.973 44.4841C127.853 47.8636 126.36 50.5369 124.248 51.7126L124.04 51.822C120.357 53.6675 116.143 51.5097 115.445 47.5329L115.39 47.1423C115.044 44.1117 116.673 41.6659 119.662 40.8054L119.955 40.7272Z" fill="#E2ABFB" stroke="#4C4C55" stroke-width="3"/>
</svg>
